<?xml version="1.0" encoding="utf-8"?>
<!-- Generator: Adobe Illustrator 16.0.3, SVG Export Plug-In . SVG Version: 6.00 Build 0)  -->
<!DOCTYPE svg PUBLIC "-//W3C//DTD SVG 1.1//EN" "http://www.w3.org/Graphics/SVG/1.1/DTD/svg11.dtd">
<svg version="1.1" id="Layer_1" xmlns="http://www.w3.org/2000/svg" xmlns:xlink="http://www.w3.org/1999/xlink" x="0px" y="0px"
	 width="100px" height="100px" viewBox="0 0 100 100" enable-background="new 0 0 100 100" xml:space="preserve">
<g>
	<path fill="#FFFFFF" d="M52.906,37.542c5.99,1.399,10.785,5.993,12.385,11.785c0.199,0.399,0.598,0.601,0.996,0.198l12.984-12.981
		c0.199-0.199,0.6-0.199,0.799,0l1.797,1.797c0.201,0.2,0.6,0.2,0.801,0l3.994-3.994c0.197-0.2,0.197-0.399,0-0.6l-0.801-0.796
		c-0.199-0.202-0.199-0.401,0.203-0.602l4.193-1.796c0.6-0.201,1.195-0.799,1.396-1.399l4.193-11.985
		c0.6-1.397-0.396-3.195-1.996-3.395c-1.199-0.199-2.398,0.599-2.797,1.799L87.26,26.157c0,0.202-0.197,0.202-0.4,0.401
		l-4.992,2.197c-0.199,0-0.4,0-0.6-0.199l-7.59-7.591c-0.197-0.201-0.197-0.4-0.197-0.6l2.395-4.992c0-0.199,0.201-0.199,0.4-0.4
		l10.387-3.595c1.197-0.399,1.996-1.599,1.797-2.797c-0.201-1.599-1.998-2.595-3.396-1.998l-11.984,4.195
		c-0.6,0.201-1.199,0.798-1.396,1.398l-1.799,4.193c-0.199,0.203-0.398,0.203-0.598,0.203l-0.801-0.801
		c-0.199-0.199-0.398-0.199-0.598,0l-3.994,3.994c-0.201,0.202-0.201,0.6,0,0.799l1.996,2c0.201,0.198,0.201,0.598,0,0.797
		L52.506,36.744C52.307,36.943,52.307,37.542,52.906,37.542z"/>
	<g>
		<polygon fill="#FFFFFF" points="92.584,87.313 66.471,58.56 92.584,87.313 		"/>
		<path fill="#FFFFFF" d="M95.336,90.343l-2.752-3.029l0,0L66.471,58.56c-0.188-0.213-0.387-0.224-0.609,0.164
			c-2.348,5.863-8.002,10.13-14.43,10.551c-0.199-0.012-0.422,0.376-0.234,0.586l18.447,20.482H95.336z"/>
	</g>
	<g>
		<polygon fill="#FFFFFF" points="6.729,87.313 32.842,58.56 6.729,87.313 		"/>
		<path fill="#FFFFFF" d="M3.976,90.343l2.752-3.029l0,0L32.842,58.56c0.188-0.213,0.388-0.224,0.61,0.164
			c2.346,5.863,8.001,10.13,14.428,10.551c0.2-0.012,0.422,0.376,0.234,0.586L29.669,90.343H3.976z"/>
	</g>
	<path fill="#FFFFFF" d="M55.01,53.495c0,2.906-2.352,5.259-5.252,5.259c-2.908,0-5.26-2.353-5.26-5.259
		c0-2.902,2.352-5.255,5.26-5.255C52.658,48.24,55.01,50.593,55.01,53.495L55.01,53.495z M55.01,53.495"/>
	<path fill="#FFFFFF" d="M63.016,53.495c0-0.457-0.023-0.907-0.061-1.354c-0.695-6.792-6.365-11.905-13.198-11.905
		c-7.316,0-13.265,5.941-13.265,13.259c0,7.314,5.949,13.265,13.265,13.265C57.074,66.76,63.016,60.81,63.016,53.495L63.016,53.495z
		 M49.757,63.446c-5.487,0-9.951-4.464-9.951-9.951c0-5.489,4.463-9.954,9.951-9.954c5.489,0,9.952,4.465,9.952,9.954
		C59.709,58.982,55.246,63.446,49.757,63.446L49.757,63.446z M49.757,63.446"/>
	<g>
		<polygon fill="#FFFFFF" points="7.386,19.095 33.501,47.852 7.386,19.095 		"/>
		<path fill="#FFFFFF" d="M4.637,16.066l2.749,3.028l0,0l26.116,28.757c0.187,0.209,0.385,0.222,0.609-0.165
			c2.347-5.864,8.003-10.133,14.43-10.553c0.199,0.012,0.421-0.374,0.234-0.587l-18.447-20.48H4.637z"/>
	</g>
</g>
</svg>
